<svg xmlns="http://www.w3.org/2000/svg" viewBox="0 0 5.48 10.31"><defs><style>.cls-1{fill:#00abdd;}</style></defs><g id="Layer_2" data-name="Layer 2"><g id="Layer_1-2" data-name="Layer 1"><path class="cls-1" d="M1.31,5.15l4-4.22a.55.55,0,0,0,0-.78.54.54,0,0,0-.77,0L.15,4.78a.56.56,0,0,0,0,.08A.47.47,0,0,0,0,5a.36.36,0,0,0,0,.1.44.44,0,0,0,0,.1.43.43,0,0,0,0,.11.36.36,0,0,0,0,.1.47.47,0,0,0,.06.09.56.56,0,0,0,0,.08l4.38,4.61a.54.54,0,0,0,.4.17.53.53,0,0,0,.37-.15.55.55,0,0,0,0-.78Z"/></g></g></svg>