<svg xmlns="http://www.w3.org/2000/svg" viewBox="0 0 1471 1303"><defs><style>.cls-1{fill-rule:evenodd;}</style></defs><g id="Layer_2" data-name="Layer 2"><g id="Layer_1-2" data-name="Layer 1"><path class="cls-1" d="M787.48,296.56c140.94-78.34,245.4-365,383.29-281.44,139.5,84.59-122.08,326.41-60.17,477.36C1159.66,612.1,1384.86,563.6,1443.07,679c52.89,104.88,30.72,274.73-67,339.83-114.94,76.55-277.22-73-406.49-24.46-97,36.45-90.79,196.41-182.07,245.53-104,56-238.83,88-346.16,38.71C334.38,1229.51,315,1087.15,246.56,991.37,169.71,883.76-56.43,791.52,13.11,679c96.08-155.41,360.78-55,518.05-148,59-34.9,8.66-147.07,59.26-193.35C640.79,291.62,727.81,329.73,787.48,296.56Z"/></g></g></svg>