<svg xmlns="http://www.w3.org/2000/svg" viewBox="0 0 675.53 668.03"><defs><style>.cls-1{fill-rule:evenodd;}</style></defs><g id="Layer_2" data-name="Layer 2"><g id="Layer_1-2" data-name="Layer 1"><path class="cls-1" d="M568.94,440.71c-22.08,62.86,48.4,158.77-6,197.33-53.9,38.24-120.31-66.7-186.18-61-59.23,5.11-92.78,101.22-151.19,90.12-55.5-10.54-68.54-87.7-96-137.07-21.54-38.8-27.69-82.93-48.1-122.34C58.7,363.61,9.94,332.85,2.11,283.8c-8-50,7.29-104.1,36.44-145.48C67.26,97.57,116.43,77.57,161.86,57c40.7-18.42,83.61-32.8,128.3-32.53,41.91.25,77.58,36.24,119.43,34,69.56-3.7,137.89-82.75,199.92-51,53.69,27.49,29.06,114.75,40.33,174,9.5,49.94,36.29,100.58,21.15,149.09S585.73,392.89,568.94,440.71Z"/></g></g></svg>