<svg xmlns="http://www.w3.org/2000/svg" viewBox="0 0 1191.73 1244.99"><defs><style>.cls-1{fill-rule:evenodd;}</style></defs><g id="Layer_2" data-name="Layer 2"><g id="Layer_1-2" data-name="Layer 1"><path class="cls-1" d="M1095.32,29.45c88.91,56.8,8.49,207.44,26.35,311.42,14.38,83.78,80.21,158.06,68.72,242.28-11.45,84-70.11,155.2-131,214.15-54.88,53.14-150.05,48.27-199.82,106.22-75.66,88.09-57.66,243.89-155.1,307-88.51,57.34-214,34-312.4-4.13-97.39-37.72-188.88-110.51-230.64-206.23C120.24,905.71,199.13,793.54,169,695,141.4,604.71-1.76,566.56,0,472.2c1.72-91.65,122.57-132.13,177-205.85C226,200,238.57,106.71,305.52,58.57c67.29-48.37,156.53-65,239-56.38,78.27,8.23,130.34,99.56,208.94,103.45C871.52,111.49,995.65-34.21,1095.32,29.45Z"/></g></g></svg>