<svg xmlns="http://www.w3.org/2000/svg" viewBox="0 0 1040.92 996"><defs><style>.cls-1{fill-rule:evenodd;}</style></defs><g id="Layer_2" data-name="Layer 2"><g id="Layer_1-2" data-name="Layer 1"><path class="cls-1" d="M520.9,911.86c-65.67-17.53-127-37.81-193.26-53.21-96.32-22.4-221,16.59-285.75-58.19C-19.48,729.54-7,606.24,38,523.91,82.5,442.25,229.32,462.8,271.37,379.84c46.22-91.19-63.81-216-7.64-301.38C313.8,2.3,429.77-1.46,520.9.3c90.34,1.74,172.36,44.39,251.51,88,80.43,44.3,166.23,88.42,212.65,167.64,46.52,79.4,73.6,181.36,42.58,268-30.62,85.47-159,96-201.63,176.15C780.82,785,863.58,925.77,784.58,980.61,708.67,1033.31,610.18,935.69,520.9,911.86Z"/></g></g></svg>