<svg id="destinMarker" xmlns="http://www.w3.org/2000/svg" viewBox="0 0 73.91 116.96"><defs><style>.cls-1{fill:#00abdd;}.cls-2{fill:#fbb040;}.cls-3{fill:#fff200;}</style></defs><g id="Layer_2" data-name="Layer 2"><g id="Layer_1-2" data-name="Layer 1"><path class="cls-1" d="M73.91,37c0,20.74-19.41,35.55-24.85,45.33C40.5,97.71,37,117,37,117S33.34,98.77,24.27,82.14C17.16,69.1,0,59.47,0,37a37,37,0,1,1,73.91,0Z"/><path class="cls-2" d="M61.78,37.4c0-3-6-3.76-6-3.76s5.21-3,4.06-5.74S53,26.71,53,26.71s3.68-4.74,1.55-6.86-6.86,1.55-6.86,1.55,1.59-5.78-1.19-6.94-5.75,4.07-5.75,4.07-.74-6-3.75-6-3.76,6-3.76,6-3-5.22-5.74-4.07-1.19,6.94-1.19,6.94-4.74-3.68-6.87-1.55S21,26.71,21,26.71,15.17,25.12,14,27.9s4.06,5.74,4.06,5.74-5.95.75-5.95,3.76,5.95,3.75,5.95,3.75-5.21,3-4.06,5.75S21,48.09,21,48.09,17.28,52.82,19.4,55s6.87-1.55,6.87-1.55-1.59,5.78,1.19,6.93,5.74-4.06,5.74-4.06S34,62.22,37,62.22s3.75-5.95,3.75-5.95,3,5.21,5.75,4.06,1.19-6.93,1.19-6.93,4.73,3.68,6.86,1.55S53,48.09,53,48.09s5.78,1.59,6.93-1.19-4.06-5.75-4.06-5.75S61.78,40.41,61.78,37.4Z"/><circle class="cls-3" cx="36.96" cy="37.4" r="21.3"/></g></g></svg>