<svg xmlns="http://www.w3.org/2000/svg" viewBox="0 0 216.87 90.78"><defs><style>.cls-1{fill:#dccd23;}.cls-2{fill:#fff;}</style></defs><g id="Layer_2" data-name="Layer 2"><g id="Layer_1-2" data-name="Layer 1"><circle class="cls-1" cx="121.99" cy="44.49" r="44.49"/><path class="cls-2" d="M13.64,40.9C12.77,52,10,78.61,9.73,89.45c-1,1.09-8.46.87-9.73,1.33C2.6,74.36,1.36,58.11,4.31,41.59Z"/><path class="cls-2" d="M25.66,71.93c-.14,2.7-.33,4.19.57,5.72,1.87,4,8.61,3.4,8.84-3.86,1.84,0,6.7-1,8.65-.69C43,77.72,42.35,82.62,41,83.82c-3.44,4.63-10.82,4-16,4.49a9.35,9.35,0,0,1-3.48-.88c-4.61-2.91-5.7-10.73-4.77-18.06.53-3.34.92-6.46,2.25-9.54,2.83-5.57,11-8.3,17.44-7.3,8.41.61,9,8.27,7.88,15.89-2,.72-15.62,2.56-18.47,2.3ZM32.56,59c-4.33.41-5.52,2.47-6.06,4.94-.49,1.92-.46,1.52,6.35.87,4.74-.45,4.29.13,4.39-1.23a4,4,0,0,0-2.33-4.13A3.56,3.56,0,0,0,32.56,59Z"/><path class="cls-2" d="M63.44,47c-.09,1.15-.12,2.43-.23,3.78,2.82-.33,5.73-.81,10.42-1.53,1.2,1.3-.4,6-.25,8.41l-10.66,1c-.39,4.87-.76,9.6-1,13.65,1.58,2.33,7.26,2.19,10.37,1.69.15,2.47.46,6.26-.72,9.13C64,84.22,54.89,84.29,53,79a102.33,102.33,0,0,1,.44-19.3c-1.45.21-3,.36-5,.54L49.33,52c1.85-.11,3.43-.26,4.88-.4.31-3.92.48-9.57,1.1-13,2.43-.57,5.8,0,8.85-.64Z"/><path class="cls-2" d="M109.07,56.38c.73-2.35-2.06-4.17-4.42-3.74-4.25,1.14-4.69,5.88-.48,7,5.1.25,9.91.73,11.82,3.23,1.74,3,2.12,6,0,11.13-2.48,4.6-7.51,6.82-12.79,7.26C94,82.44,88.06,78.57,88.64,71.34v-.2l0-.14c3-.62,7.36-.77,10.18-1-.13,4.1,8.35,4.77,8.56-.42.9-4.51-5.44-2.9-10.35-4.58-10-2.46-7.72-15.36,1.33-18.51a40.15,40.15,0,0,1,15.39-1.33c4.19,1.41,5.5,5.44,5.12,10.31A30.61,30.61,0,0,1,109.07,56.38Z"/><path class="cls-2" d="M167.88,50.37l.14,0,.06.06a55,55,0,0,1-1.21,15.28c-.84,4.64-3.56,7-7.17,8.67-4.63,1.71-10.35,3.27-14.61,1.86-3.52-1.21-5-3.61-5.83-7.36a34.54,34.54,0,0,1-.45-4.65,99.9,99.9,0,0,1,.54-15.42,68.43,68.43,0,0,1,1.39-8.92c.72-3,1.85-6.08,4.67-8.16a15.18,15.18,0,0,1,6.87-3.13c10.35-2.27,18.61,1.91,16.43,13.05l-.1.42c-.22.28-.77.27-2.22.47a41.94,41.94,0,0,1-6.45.42c-.4-1.77-1.54-5.42-4.23-5.17-1.57.09-3.06,0-4.25,1.15a7.25,7.25,0,0,0-.9,1.89C148.91,45.27,148,53.67,148,60.38c.06,1.94.19,4.61,1.8,5.8a4.12,4.12,0,0,0,1.53.46,10.08,10.08,0,0,0,4.31-1A4.49,4.49,0,0,0,158,63c.26-.77.92-3.91.39-4.07-1.09-.09-4.21.61-5.08.35-.11-2.87.38-4,.29-7.07v-.06c0-.07,0-.07.08-.08a.23.23,0,0,0,.14-.08C156.22,50.34,166,50.54,167.88,50.37Z"/><path class="cls-2" d="M202.87,35.09a53.78,53.78,0,0,1-.39,6.68c-.66,4.82-.73,9.19-1.44,13.89l-.39,2.25a22.81,22.81,0,0,1-3.33,9.37,15.52,15.52,0,0,1-7.41,4.8A23.07,23.07,0,0,1,182,73.5c-3.76,0-7.34-.44-8.7-3.86-1.13-2.11-1.2-4.72-1.06-7.35.28-7,.3-14,1.34-21.19.39-4.06,1.49-8.46,4.56-11.91a8.55,8.55,0,0,1,1.68-1.36c6.28-3.49,14.8-4.17,19.77-.68A7.69,7.69,0,0,1,202.1,31,13.12,13.12,0,0,1,202.87,35.09Zm-9.2,8.52c0-.06,0-2.27,0-3.82,0-2.48-1.07-4.6-3.12-5.41-1.8-.56-3.91.24-5.44,1.46a11.34,11.34,0,0,0-3.6,5A44.35,44.35,0,0,0,180,52c.23,3.13-.11,6.51.55,9.4,1.5,3.42,7.25,3.27,10.31-.11,1.9-2.39,1.21-2.33,1.87-6.28.21-1.83.4-3.33.41-3.53l.26-3.24Z"/><path class="cls-2" d="M208.4,23c2.42-.43,6-1.44,8.47-.94-1.12,11.58-2.4,24.25-2.77,35.75-2.43.5-6.21.86-8.89,1.19h-.07c1.15-11.91,1.32-23.6,3.06-36Zm-3.76,47.39c-.62.06.64-5.43.84-7.93v-.07c2.27-1.09,5.72-.68,8.4-.93-.27,2.5-.64,5.49-.85,8.13l-.48,0c-1.1.11-1.58.09-2.61.18l-.13,0Z"/><path class="cls-2" d="M80.58,44.92l.7-8.85,8.82-.84-.7,8.85L84.58,50l-4.44.42,3.19-5.79Z"/></g></g></svg>