<?xml version="1.0" encoding="utf-8"?>
<!-- Generator: Adobe Illustrator 25.0.1, SVG Export Plug-In . SVG Version: 6.00 Build 0)  -->
<svg version="1.1" id="Layer_1" xmlns="http://www.w3.org/2000/svg" xmlns:xlink="http://www.w3.org/1999/xlink" x="0px" y="0px"
	 viewBox="0 0 504.4 295" style="enable-background:new 0 0 504.4 295;" xml:space="preserve">
<style type="text/css">
	.st0{fill-rule:evenodd;clip-rule:evenodd;fill:#FFFFFF;}
</style>
<g>
	<path class="st0" d="M252.2,4.4c38.3,0,69.4,31.1,69.4,69.4s-31,69.4-69.4,69.4c-38.3,0-69.4-31.1-69.4-69.4S213.9,4.4,252.2,4.4z"
		/>
	<path class="st0" d="M252.2,155.4c53.2,0,98.8,38.1,117.7,92.1c-30.5,29.4-72,47.5-117.7,47.5s-87.2-18.1-117.7-47.6
		C153.4,193.5,199,155.4,252.2,155.4L252.2,155.4z"/>
	<path class="st0" d="M407.9,0c31.4,0,56.9,25.5,56.9,56.9s-25.5,56.9-56.9,56.9S351,88.3,351,56.9S376.4,0,407.9,0z"/>
	<path class="st0" d="M407.9,123.8c43.6,0,81,31.2,96.5,75.5c-25,24.1-59,39-96.5,39c-6.5,0-13-0.4-19.3-1.3
		c-11.4-30.3-30.9-57.1-56-75.7C351.6,138.2,378.3,123.8,407.9,123.8L407.9,123.8z"/>
	<path class="st0" d="M96.5,0c31.4,0,56.9,25.5,56.9,56.9s-25.5,56.9-56.9,56.9S39.6,88.3,39.6,56.9S65.1,0,96.5,0z"/>
	<path class="st0" d="M96.5,123.8c29.6,0,56.3,14.4,75.3,37.4c-25.1,18.6-44.6,45.4-56,75.7c-6.3,0.9-12.7,1.3-19.3,1.3
		c-37.5,0-71.5-14.9-96.5-39C15.5,155,52.9,123.8,96.5,123.8L96.5,123.8z"/>
</g>
</svg>
