<?xml version="1.0" encoding="utf-8"?>
<!-- Generator: Adobe Illustrator 26.0.1, SVG Export Plug-In . SVG Version: 6.00 Build 0)  -->
<svg version="1.1" id="Layer_1" xmlns="http://www.w3.org/2000/svg" xmlns:xlink="http://www.w3.org/1999/xlink" x="0px" y="0px"
	 viewBox="0 0 39.3 55.1" style="enable-background:new 0 0 39.3 55.1;" xml:space="preserve">
<style type="text/css">
	.st0{fill:#00ABDD;}
</style>
<path class="st0" d="M22.4,49.9c0,0-7.5-0.5-9.9-0.6c-8.2-0.5-9-1.3-10.3-9.9C1.6,35.5,0,24,0,24c-0.4-3.5,4.6-4.3,5.1-0.7
	c0,0,1.4,11,2,14.6c0.8,4.9,1.5,5.8,6.5,6.1l9.1,0.6C26.3,44.8,26,50.1,22.4,49.9z M8.6,12c3.3,0,6-2.7,6-6c0-3.3-2.7-6-6-6
	s-6,2.7-6,6C2.6,9.3,5.3,12,8.6,12z M38.4,49.2l-7.9-14.4c-0.8-1-2-1.8-3.4-1.8c-1.5-0.1-2.9-0.3-4.4-0.4c-1-0.1-1.9-0.2-2.9-0.3
	c-0.4,0-0.7-0.1-1.1-0.1l-1.3-5.8l0,0c0-0.2-0.1-0.4-0.1-0.6l-0.1-0.5l-1.7-7.7c-0.2-0.8-0.6-1.6-1.2-2.1l0,0
	c-0.2-0.2-0.4-0.3-0.6-0.4c-0.1,0-0.2-0.1-0.2-0.1c-0.1,0-0.2-0.1-0.2-0.1c0,0,0,0,0,0c0,0-0.1,0-0.1,0c-0.1-0.1-0.3-0.1-0.4-0.2
	c-0.1,0-0.2-0.1-0.3-0.1c-0.1,0-0.2-0.1-0.4-0.1c-0.5-0.1-1.1-0.1-1.6,0c-0.2,0-0.4,0.1-0.6,0.2l0,0c0,0,0,0,0,0c0,0-0.1,0-0.2,0
	c-2.1,0.6-3.5,2.7-3,4.9L9,31c0.3,2,1,6.6,1.8,8c0,0.1,0.1,0.2,0.2,0.3c1,1.2,2,2.1,3.7,2.2L26.3,42l7,12c0.6,0.7,1.5,1,2.3,1.1
	c0.9,0,1.8-0.3,2.6-0.9C39.7,52.8,39.7,50.6,38.4,49.2z"/>
</svg>
