<?xml version="1.0" encoding="utf-8"?>
<!-- Generator: Adobe Illustrator 26.0.1, SVG Export Plug-In . SVG Version: 6.00 Build 0)  -->
<svg version="1.1" id="Layer_1" xmlns="http://www.w3.org/2000/svg" xmlns:xlink="http://www.w3.org/1999/xlink" x="0px" y="0px"
	 viewBox="0 0 84.5 76.4" style="enable-background:new 0 0 84.5 76.4;" xml:space="preserve">
<style type="text/css">
	.st0{fill:#00ABDD;}
</style>
<path class="st0" d="M80.8,30.8L67.4,15.4l-3.9-0.5c-0.5-0.9-1.1-1.8-1.7-2.5l-6.4-7.3C50-1.1,40.6-1.7,34.5,3.6L27.1,10
	c-0.3,0.2-0.6,0.5-0.8,0.8l-3.6-0.4L19,13.6l-1.9-2.2l1.4-1.2c1.1-1,1.3-2.8,0.3-4l-0.6-0.6c-1-1.1-2.8-1.3-4-0.3L0.9,16.8
	c-1.1,1-1.3,2.8-0.3,4l0.6,0.6c1,1.1,2.8,1.3,4,0.3l1.4-1.2l2.1,2.4C4.2,28.4,4.1,36.5,9,42.1l25.4,29.2c5.4,6.2,14.8,6.8,20.9,1.5
	l24.1-21C85.5,46.3,86.1,36.9,80.8,30.8z M37.8,7.4c4-3.5,10.2-3.1,13.7,1l5,5.7l-4.2-0.5l-19.1-2.2L37.8,7.4z M46.4,58.9
	c-6.7,0-12.1-5.3-12.1-11.7c0-1.9,0.4-3.6,1.3-5.3c0-0.1,0.1-0.1,0.1-0.1L45.6,24c0.1-0.3,0.5-0.5,0.9-0.5s0.7,0.2,0.9,0.5l9.8,17.7
	c0.1,0.1,0.1,0.2,0.1,0.3c0.4,0.7,0.6,1.5,0.9,2.3c0.3,0.9,0.4,1.9,0.4,3C58.5,53.7,53.1,58.9,46.4,58.9z"/>
</svg>
