<?xml version="1.0" encoding="utf-8"?>
<!-- Generator: Adobe Illustrator 26.0.1, SVG Export Plug-In . SVG Version: 6.00 Build 0)  -->
<svg version="1.1"
	 id="Layer_1" xmlns:cc="http://creativecommons.org/ns#" xmlns:dc="http://purl.org/dc/elements/1.1/" xmlns:rdf="http://www.w3.org/1999/02/22-rdf-syntax-ns#" xmlns:svg="http://www.w3.org/2000/svg"
	 xmlns="http://www.w3.org/2000/svg" xmlns:xlink="http://www.w3.org/1999/xlink" x="0px" y="0px" viewBox="0 0 90 90"
	 style="enable-background:new 0 0 90 90;" xml:space="preserve">
<style type="text/css">
	.st0{fill:#00ABDD;}
</style>
<g transform="translate(0,-952.36218)">
	<path class="st0" d="M33.3,995.1c-1.8,0-3.5,0.3-5,0.9l-24.7,10.1c-4.3,1.8-4.8,5.5-1.1,8.4l32,24.9c3.7,2.9,10.1,3.8,14.5,2
		l24.7-10.1c4.3-1.8,4.8-5.5,1.1-8.4L56,1008.3l-4.5,10.1l16.1,12.5l-14.2,5.8l-40.5-31.6l14.2-5.8l8.7,6.8l4.3-9.7
		C38,995.6,35.6,995.1,33.3,995.1z"/>
	<path class="st0" d="M46.5,987.7l-10.9,25.2c-0.9,2,1.4,4.7,5.1,6s7.3,0.8,8.2-1.2l12.4-28.6c-0.4,0-0.8,0.1-1.3,0.1
		C54.8,989.7,50.2,989,46.5,987.7L46.5,987.7z"/>
	<path class="st0" d="M69.6,952.4c-0.9,0-1.8,0-2.7,0.1c-12.8,0.9-24.6,7.4-28.6,15.4c-1.1,0.3-1.9,0.5-1.9,0.5
		c-0.9,0-1.8,0.2-2.6,0.7c-0.2,0.1-0.3,0.2-0.5,0.3c-0.1,0.1-0.2,0.1-0.2,0.2c-0.1,0.1-0.3,0.2-0.4,0.3c-1.1,0.9-1.9,2.2-2.4,3.7
		c0,0,0,0,0,0c-0.1,0.4-0.2,0.8-0.3,1.2c0,0,0,0,0,0c-0.1,0.5-0.2,1.1-0.2,1.7c0,0,0,0,0,0c0,0.1,0,0.3,0,0.4c0,0.3,0,0.6,0,0.9
		c0,0,0,0,0,0c0.2,2.9,1.6,5.3,3.5,6.6c1,0.8,2.2,1.2,3.5,1.2c2.6-0.5,4.8-0.9,7-2c4.1,2.2,9.7,3.3,16.2,2.9
		c14.6-1,27.9-9.4,29.9-18.8C91.6,958.9,82.7,952.3,69.6,952.4L69.6,952.4z"/>
</g>
</svg>
