<?xml version="1.0" encoding="utf-8"?>
<!-- Generator: Adobe Illustrator 26.0.1, SVG Export Plug-In . SVG Version: 6.00 Build 0)  -->
<svg version="1.1" id="Layer_1" xmlns="http://www.w3.org/2000/svg" xmlns:xlink="http://www.w3.org/1999/xlink" x="0px" y="0px"
	 viewBox="0 0 83.5 83.5" style="enable-background:new 0 0 83.5 83.5;" xml:space="preserve">
<style type="text/css">
	.st0{fill:#00ABDD;}
</style>
<g>
	<path class="st0" d="M41.8,0C18.7,0,0,18.7,0,41.8s18.7,41.8,41.8,41.8c23.1,0,41.8-18.7,41.8-41.8S64.8,0,41.8,0z M41.8,76.3
		c-19.1,0-34.5-15.5-34.5-34.5c0-19.1,15.5-34.5,34.5-34.5c19.1,0,34.5,15.5,34.5,34.5C76.3,60.8,60.8,76.3,41.8,76.3z"/>
	<path class="st0" d="M28.7,37.8c0,0,0.7,0.9,1.3,0.3c0,0,0.5-0.7-0.2-1.5c0,0-1.6-1.8-2.8-2.7c0,0-0.5-0.5-0.9,0c0,0-0.4,0.6,0,1.1
		l1,1.1c0,0,0.1,2.8,0.9,5.2c0,0,2.6,7.1,0,7c0,0-1.7,0.6-0.9-3.9l0.2-2c0,0,0.6-3.2-2.5-4.8v-7c0,0,0-0.7-0.7-0.7h-9.5
		c0,0-0.7,0-0.7,0.7v19.1c0,0-0.5,0.1-0.5,0.5v1.2c0,0,0,0.4,0.5,0.4h10.8c0,0,0.6,0.1,0.6-0.4v-1.2c0,0-0.1-0.5-0.5-0.5V39.5
		c0,0,1.1,0.8,1.1,1.5c0,0-0.2,2.9-0.5,4.7c0,0-0.5,4.2,2.2,4.2c0,0,3.8,0.2,2.7-5.4C30.4,44.5,28.7,38.7,28.7,37.8z M23.3,36.6
		c0,0,0,0.4-0.4,0.4h-7c0,0-0.4,0-0.4-0.4V32c0,0,0-0.5,0.5-0.5h6.9c0,0,0.4,0,0.4,0.5L23.3,36.6L23.3,36.6z"/>
	<rect x="39.8" y="10.1" class="st0" width="4.5" height="12"/>
	<rect x="39.5" y="61.6" class="st0" width="4.5" height="12"/>
	<rect x="61.7" y="39.5" class="st0" width="12" height="4.5"/>
	<rect x="56.8" y="20.7" transform="matrix(0.7073 -0.7069 0.7069 0.7073 2.0969 49.2297)" class="st0" width="7.3" height="2.7"/>
	
		<rect x="59.1" y="57.9" transform="matrix(0.7071 -0.7071 0.7071 0.7071 -25.7806 60.7991)" class="st0" width="2.7" height="7.3"/>
	<path class="st0" d="M41.4,38.3c-1.8,0.2-3.2,1.6-3.2,3.5c0,0.5,0.1,0.9,0.2,1.3l-3.9,6.2l4-1.2L40,52l2.8-6.9
		c1.4-0.4,2.4-1.8,2.4-3.3c0-0.6-0.2-1.2-0.4-1.6l8.5-21L41.4,38.3z"/>
</g>
</svg>
