<?xml version="1.0" encoding="utf-8"?>
<!-- Generator: Adobe Illustrator 25.0.1, SVG Export Plug-In . SVG Version: 6.00 Build 0)  -->
<svg version="1.1" id="Layer_1" xmlns="http://www.w3.org/2000/svg" xmlns:xlink="http://www.w3.org/1999/xlink" x="0px" y="0px"
	 viewBox="0 0 158.3 37.9" style="enable-background:new 0 0 158.3 37.9;" xml:space="preserve">
<style type="text/css">
	.st0{fill:#FFFFFF;}
</style>
<g id="Layer_2_1_">
	<g id="Layer_1-2">
		<path class="st0" d="M4.9,20.6c0-0.1,1.2,4.7,7.8,3.9c-1.3-2.5-3.5-4.4-6.2-5.2c0.2-0.1,1.3-1,1.5-1.1c-0.2,0.8,3.5,4.3,6.4,3.4
			c-0.9-2.1-2.6-3.6-4.8-4.4c0.4-0.2,0.7-0.5,1-0.6c-0.2,0.5,2.6,3.1,5.5,2.9c0-1.4-3.2-4.1-3.8-3.9l0.9-0.5c0.4,1,3.1,3,5,2.7
			c-1.5-3.2-3.5-3.4-3.5-3.4l0.9-0.4c0,0.9,2.7,2.8,4.6,2.4c-0.4-1.5-1.7-2.7-3.3-3l1-0.5c-0.2,0.3,2.1,2.2,4.2,2
			c-1-2.5-2.5-2.6-3-2.7c0.3-0.1,0.6-0.3,0.9-0.5c0.1,0.3,1.3,2,4.1,1.6c-0.6-1.2-1.7-2-3-2.1c0.4-0.2,0.7-0.3,1-0.5
			c0.2,0.2,0.9,1.7,3.8,1.2c-0.4-1-1.3-1.7-2.4-1.9c0.2-0.1,0.5-0.3,0.7-0.4c0.8,0.9,2.1,1.2,3.2,0.9C26.9,9.6,26,9.1,25,9.1
			c0.4-0.3,0.9-0.6,0.8-0.6c0.1,0.3,1,1.2,3,0.6c-0.5-0.7-1.3-1.1-2.2-1c0.4-0.3,0.5-0.4,0.8-0.6c0.6,0.8,1.7,1,2.6,0.4
			c-0.4-0.7-1.2-1.1-1.9-0.9c0.2-0.2,0.4-0.4,0.6-0.6c-0.1,0.2,1.2,0.9,2.3,0c-0.5-0.5-1.1-0.7-1.8-0.6c0.1-0.2,0.2-0.2,0.3-0.4
			c0.6,0.4,1.4,0.3,1.9-0.2C31,4.8,30.4,4.8,29.8,5l0.4-0.6c0.5,0.4,1.3,0.2,1.6-0.3c-0.4-0.2-0.9-0.3-1.4-0.1c0,0,0.1-0.2,0.2-0.3
			c2,0.2,1.3-2.1,0.9-3.4C23.9,11.7,13.9,3.6,1.7,10.8c-0.6,1.5-0.8,3.1-0.6,4.6c0,0.2,0,0.3,0.1,0.6c0.1,0.7,0.2,1.4,0.5,2
			c0.2,0.7,0.5,1.2,0.8,1.9L3,19.5c-0.6-0.8-2.4-5.5-0.1-8.2c2.2,0,2.4,6.2,2.1,6.8l1.4-0.9C5.8,17,4.2,11.6,6.9,9.4
			c0,0,2.4,0.9,1.4,6.6c0.5-0.3,1-0.6,1.6-0.8c-0.3-0.6-2-4.6,0.7-6.7c1.4,0.6,1.4,5,0.8,6c0.4-0.2,1-0.5,1.4-0.7
			c-0.8-0.4-0.8-4.6,0.6-5.7c1.6,1.5,1.2,4,0.8,5.1l1.2-0.5c-0.9-1.5-0.7-3.5,0.5-4.8c0.8,0.5,1,1.9,0.6,4.3
			c0.3-0.1,0.5-0.2,0.9-0.4c-0.2-0.4-0.7-2.8,0.6-4.1c1.2,0.6,0.8,3.3,0.7,3.6c0,0,0.7-0.3,0.7-0.3c-0.4-1.2-0.1-2.5,0.7-3.5
			c0.5,0.3,0.9,1.2,0.5,2.9c0.3-0.1,0.5-0.2,0.8-0.4c-0.4-0.4-0.1-2.2,0.5-2.9c0.7,0.6,1,1.5,0.8,2.3l0.7-0.4
			c-0.2-0.4-0.3-2,0.4-2.4c0.7,0.5,0.6,1.7,0.6,1.9c0.2-0.1,0.8-0.4,0.8-0.4c-0.5-0.6-0.4-1.6,0.2-2.1c0,0,0,0,0,0
			c0.7,0.2,0.7,1.4,0.6,1.5C26.4,7.5,26.8,7.2,27,7c-0.6-0.1-0.6-1.2-0.2-1.6c0.4,0.1,0.7,0.3,0.9,1.1c0.2-0.2,0.5-0.5,0.7-0.6
			c-0.4-0.2-0.7-0.6-0.5-1.1c0-0.1,0.1-0.3,0.2-0.3c0.4,0.1,0.7,0.5,0.8,0.9c0.2-0.1,0.3-0.3,0.4-0.5c-0.4-0.3-0.5-0.8-0.3-1.2
			c0.4,0,0.7,0.5,0.7,0.7l0.4-0.5c-0.2-0.2-0.6-0.7-0.2-1.1c0.4,0,0.5,0.3,0.6,0.6c-4.1,8.1-20.8,9.5-29.6,19.3c0,0-0.9,0.9-0.9,1.4
			v3.3h0.2C1.1,24.7,2.8,22.4,4.9,20.6"/>
		<path class="st0" d="M37.4,1.6c0,0.7-0.5,1.2-1.2,1.2c-0.7,0-1.2-0.5-1.2-1.2c0-0.7,0.5-1.2,1.2-1.2C36.8,0.4,37.3,0.9,37.4,1.6
			C37.4,1.6,37.4,1.6,37.4,1.6 M36.1,0.2c-0.7,0-1.3,0.6-1.3,1.4c0,0.7,0.6,1.3,1.4,1.3c0.7,0,1.3-0.6,1.3-1.4
			C37.5,0.8,36.9,0.2,36.1,0.2C36.1,0.2,36.1,0.2,36.1,0.2"/>
		<polygon class="st0" points="35.3,1.2 35.3,1.3 35.5,1.3 35.5,2.2 35.7,2.2 35.7,1.3 36,1.3 36,1.2 		"/>
		<polygon class="st0" points="36.8,1.2 36.5,1.7 36.2,1.2 36,1.2 36,2.2 36.2,2.2 36.2,1.5 36.4,1.9 36.6,1.9 36.8,1.5 36.8,2.2 
			37,2.2 37,1.2 		"/>
		<path class="st0" d="M32.9,32.3h0.5c0.2,0,0.4-0.1,0.5-0.2c0.1-0.2,0.2-0.4,0.2-1s0-0.8-0.2-1c-0.1-0.2-0.3-0.2-0.5-0.2h-0.5V32.3
			z M33.5,33h-1.4v-3.8h1.4c0.4,0,0.7,0.1,1,0.4c0.3,0.4,0.5,0.9,0.4,1.4v0.3c0.1,0.5-0.1,1-0.4,1.4C34.2,32.8,33.8,33,33.5,33"/>
		<path class="st0" d="M17.9,33h-2.5v-2.5c0-0.3,0-0.6,0.1-0.9c0.1-0.2,0.4-0.3,0.6-0.3h1.8v0.7h-1.4c-0.1,0-0.2,0-0.3,0.1
			c-0.1,0.1-0.1,0.2-0.1,0.3v0.4h1.5v0.7h-1.5v0.9h1.7L17.9,33z"/>
		<path class="st0" d="M6.1,29.2H3.7v2.5c0,0.3,0,0.6,0.1,0.9C3.9,32.9,4.1,33,4.4,33h1.8v-0.7H4.8c-0.1,0-0.2,0-0.3-0.1
			c-0.1-0.1-0.1-0.2-0.1-0.3v-0.4h1.5v-0.7H4.4v-0.9h1.7V29.2z"/>
		<path class="st0" d="M22.8,32.3h1.7V33H22v-3.3l0,0c0-0.2-0.1-0.4-0.2-0.4l0,0l0,0h0.5c0.3,0,0.5,0.1,0.5,0.8V32.3z"/>
		<polygon class="st0" points="2.9,33 2.2,33 0.8,30.7 0.8,33 0,33 0,29.2 0.7,29.2 2.1,31.5 2.1,29.2 2.9,29.2 		"/>
		<path class="st0" d="M30.6,30.9v-1.3c0-0.2-0.1-0.3-0.2-0.4l0,0l0,0h0.4c0.4,0,0.5,0.2,0.5,0.8v3h-0.7l-1.5-2.2V33h-0.8v-3.8h0.7
			l1.4,2.2L30.6,30.9z"/>
		<path class="st0" d="M26,31.7l0.5-1.3l0.4,1.3H26z M26.9,29.6c0-0.2-0.2-0.4-0.5-0.4h-0.3L24.7,33h0.8l0.2-0.7h1.3l0.2,0.7h0.8
			L26.9,29.6z"/>
		<path class="st0" d="M19.6,31.7l0.4-1.3l0.4,1.3H19.6z M20.4,29.6c0-0.2-0.2-0.4-0.5-0.4h-0.3L18.3,33h0.8l0.2-0.7h1.3l0.2,0.7
			h0.8L20.4,29.6z"/>
		<path class="st0" d="M8,31.5l0.7-2.3h0.6l0.7,2.3l0.6-2.3h0.8l-1,3.7H9.6l-0.7-2.2L8.3,33H7.6l-0.9-3.2c-0.1-0.3-0.2-0.4-0.4-0.5
			l0,0l0,0h0.5c0.3,0,0.6,0.2,0.7,0.5L8,31.5z"/>
		<path class="st0" d="M14.6,30.2c0.1-0.2,0.2-0.5,0.2-0.8v-0.2h-2.4v0.7H14l-1.6,2.5V33h2.5v-0.7h-1.6L14.6,30.2z"/>
		<polygon class="st0" points="16.9,37.8 16.3,37.8 16.3,36.2 15.8,37.2 15.4,37.2 14.8,36.2 14.8,37.8 14.2,37.8 14.2,34.8 
			14.8,34.8 15.6,36.4 16.3,34.8 16.9,34.8 		"/>
		<path class="st0" d="M3.4,35.4c-0.1,0-0.3,0-0.4,0.2c-0.1,0.1-0.1,0.2-0.1,0.8s0,0.7,0.1,0.8c0.2,0.2,0.5,0.2,0.7,0c0,0,0,0,0,0
			c0.1-0.1,0.2-0.2,0.2-0.8s0-0.7-0.2-0.8C3.7,35.4,3.6,35.4,3.4,35.4 M3.4,37.9c-0.3,0-0.6-0.1-0.8-0.3c-0.3-0.3-0.3-0.7-0.3-1.2
			v-0.1c-0.1-0.4,0-0.8,0.3-1.2c0.2-0.2,0.5-0.3,0.8-0.3c0.3,0,0.6,0.1,0.8,0.3c0.3,0.3,0.4,0.8,0.3,1.2l0,0c0.1,0.4,0,0.8-0.3,1.2
			C4,37.7,3.7,37.8,3.4,37.9"/>
		<path class="st0" d="M8.5,36.1H9c0.2,0,0.4-0.2,0.4-0.4S9.2,35.4,9,35.4c0,0,0,0,0,0H8.5V36.1z M10.2,37.8H9.5l-0.6-1.2H8.5v1.2
			H7.9v-3h1.2c0.5,0,0.9,0.3,1,0.8c0,0,0,0.1,0,0.1c0,0.3-0.2,0.7-0.5,0.8L10.2,37.8z"/>
		<path class="st0" d="M12.6,37.9c-0.4,0-0.8-0.1-1.1-0.4l0,0l0.4-0.4l0,0c0.2,0.2,0.4,0.3,0.7,0.2c0.3,0,0.5-0.1,0.5-0.4
			c0-0.1,0-0.2-0.1-0.2c-0.1-0.1-0.2-0.1-0.2-0.1h-0.4c-0.2,0-0.4-0.1-0.6-0.2c-0.1-0.2-0.2-0.4-0.2-0.6c0-0.5,0.4-0.9,0.9-0.9
			c0,0,0.1,0,0.1,0c0.4,0,0.7,0.1,1,0.3l0,0l-0.4,0.4l0,0c-0.2-0.1-0.4-0.2-0.6-0.2c-0.3,0-0.4,0.2-0.4,0.4c0,0.1,0,0.2,0.1,0.2
			c0.1,0.1,0.2,0.1,0.3,0.1H13c0.2,0,0.4,0.1,0.6,0.2c0.2,0.2,0.2,0.4,0.2,0.6C13.8,37.5,13.3,37.9,12.6,37.9"/>
		<polygon class="st0" points="1.4,37.8 0.8,37.8 0.8,35.4 0,35.4 0,34.8 2.2,34.8 2.2,35.4 1.4,35.4 		"/>
		<path class="st0" d="M6.2,37.9C5.6,37.9,5.1,37.6,5,37c0-0.1,0-0.1,0-0.2v-2h0.6v1.9c0,0.3,0.2,0.5,0.5,0.5s0.5-0.2,0.5-0.5v-1.9
			h0.6v2c0,0.6-0.4,1-0.9,1.1C6.2,37.9,6.2,37.9,6.2,37.9"/>
		<path class="st0" d="M10.6,35.6v-0.4c0-0.1-0.1-0.3-0.2-0.4h0.4c0.2,0,0.4,0.1,0.4,0.7v2.3h-0.6L10.6,35.6z"/>
		<polygon class="st0" points="108.3,5.3 108.5,4.7 108,4.2 106.7,4.9 105.8,4.6 105.3,3.1 104.6,3.2 104.7,3.9 104.6,4.1 
			104.1,3.4 104.2,2.8 103.9,1.7 102.9,0.9 102.2,0.9 101.6,0 101.1,0.3 101.9,1.2 101.9,1.5 103.9,4.6 103.8,5.7 103.5,6.8 
			102.7,7.5 102.7,7.9 104,8.5 104.3,9.1 103.6,10.5 103.7,10.9 104.2,10.8 104.4,11.1 105.1,10.8 106.1,9.2 106.6,7.9 106.4,7.6 
			106.7,6.9 107.3,6.9 107.4,7.2 107.9,7 107.8,6.3 108.2,6.1 		"/>
		<path class="st0" d="M95.2,1.8v5.1l1.6,1.6h2.7l1.6-1.6V1.8l-1.6-1.6h-2.7L95.2,1.8z M97.7,3.1c0-0.4,0.2-0.7,0.5-0.7
			s0.5,0.3,0.5,0.7v2.6c0,0.4-0.2,0.7-0.5,0.7s-0.5-0.2-0.5-0.7V3.1z"/>
		<polygon class="st0" points="99.1,18.7 99.6,18.5 99.6,18.1 100.1,16.9 100.5,15.6 101.1,15.1 101.8,15.2 102.1,15.1 102.2,14.8 
			101.8,14.3 101.9,14.1 102.5,13.3 102.6,12.7 103,12.6 103.4,11.6 103.3,11.4 103.4,11 103.3,10.9 103.4,10.5 102.9,10.3 
			102.1,10.8 102.1,10.8 102.2,10.4 101.9,10.2 101.8,10.3 101.7,10.2 101.8,10 101.9,9.8 101.8,9.6 101,10.3 100.6,11.7 100.1,12 
			99.8,13.3 97.5,15.5 96.7,15.7 95.7,17.2 95,18.8 95.4,19.3 96.2,19.1 96.4,19.4 96.8,19.4 96.8,19.7 97.7,19.8 98.4,19.3 		"/>
		<path class="st0" d="M110.1,18v-5.1l-1.6-1.6h-2.7l-1.6,1.6V18l1.6,1.6h2.7L110.1,18z M107.6,16.7c0,0.4-0.2,0.7-0.5,0.7
			s-0.5-0.2-0.5-0.7v-2.6c0-0.4,0.2-0.7,0.5-0.7s0.5,0.3,0.5,0.7V16.7z"/>
		<polygon class="st0" points="96.4,19.8 96.1,19.9 96.2,20.4 95.7,21.1 95.9,21.2 96.9,20.9 97.1,20.4 97,20.3 		"/>
		<polygon class="st0" points="65.8,19.5 70.1,19.5 70.1,0.2 67.9,0.2 66.4,1.7 63.9,1.7 63.9,5.5 65.8,5.5 		"/>
		<path class="st0" d="M77.7,15.3c0,0.4-0.2,0.7-0.6,0.8c0,0,0,0-0.1,0h-0.3c-0.4,0-0.7-0.3-0.7-0.7c0,0,0,0,0-0.1V4.5
			c0-0.4,0.2-0.7,0.6-0.8c0,0,0,0,0.1,0H77c0.4,0,0.7,0.3,0.7,0.7c0,0,0,0,0,0.1L77.7,15.3z M74.5,0.2L71.8,3v13.8l2.7,2.7h4.8
			l2.7-2.7V3l-2.7-2.8H74.5z"/>
		<path class="st0" d="M88,4.5c0-0.4,0.2-0.7,0.6-0.8c0,0,0,0,0.1,0H89c0.4,0,0.7,0.3,0.7,0.7c0,0,0,0,0,0.1v10.9
			c0,0.4-0.2,0.7-0.6,0.8c0,0,0,0-0.1,0h-0.3c-0.4,0-0.7-0.3-0.7-0.7c0,0,0,0,0-0.1V4.5z M91.2,19.5l2.7-2.7V3l-2.8-2.8h-4.8L83.7,3
			v13.8l2.7,2.7H91.2z"/>
		<path class="st0" d="M120.8,8.6c0,0.4-0.2,0.7-0.6,0.7c0,0-0.1,0-0.1,0h-0.9V3.7h0.9c0.4,0,0.7,0.3,0.7,0.6c0,0,0,0.1,0,0.1V8.6z
			 M115,0.2v19.3h4.3v-6.8h3.2l2.7-2.7V2.9l-2.7-2.7H115z"/>
		<path class="st0" d="M126.5,0.2v16.6l2.7,2.7h4.8l2.7-2.7V0.2h-4.3v15.1c0,0.4-0.2,0.7-0.6,0.8c0,0,0,0-0.1,0h-0.3
			c-0.4,0-0.7-0.3-0.7-0.7c0,0,0,0,0-0.1V0.2H126.5z"/>
		<path class="st0" d="M144.2,7.8c0,0.4-0.2,0.7-0.6,0.7c0,0-0.1,0-0.1,0h-0.9V3.7h0.9c0.4,0,0.7,0.3,0.7,0.6c0,0,0,0.1,0,0.1V7.8z
			 M148.5,2.9l-2.7-2.7h-7.5v19.3h4.3v-7.4h0.9c0.4,0,0.7,0.3,0.7,0.6c0,0,0,0.1,0,0.1v4.8l0.2,1.9h4.3l-0.2-2.1v-5.3l-1.9-1.9
			l1.9-1.9V2.9z"/>
		<polygon class="st0" points="150.2,19.5 158.3,19.5 158.3,15.9 154.5,15.9 154.5,11.6 158,11.6 158,7.9 154.5,7.9 154.5,4 
			158.3,4 158.3,0.2 150.2,0.2 		"/>
		<polygon class="st0" points="70.6,28.7 70.4,28.7 69,22.5 65.8,22.5 65.8,37.8 69,37.8 69,31.2 69.1,31.2 70.9,37.8 73.8,37.8 
			73.8,22.5 70.6,22.5 		"/>
		<polygon class="st0" points="75.1,37.8 81.6,37.8 81.6,34.9 78.5,34.9 78.5,31.5 81.3,31.5 81.3,28.6 78.5,28.6 78.5,25.4 
			81.6,25.4 81.6,22.5 75.1,22.5 		"/>
		<polygon class="st0" points="98.3,25.4 101.6,25.4 98.3,35.1 98.3,37.8 105.3,37.8 105.3,34.9 102.2,34.9 105.3,25.2 105.3,22.5 
			98.3,22.5 		"/>
		<polygon class="st0" points="106.4,37.8 112.8,37.8 112.8,34.9 109.8,34.9 109.8,31.5 112.6,31.5 112.6,28.6 109.8,28.6 
			109.8,25.4 112.8,25.4 112.8,22.5 106.4,22.5 		"/>
		<polygon class="st0" points="123.8,22.5 123.8,37.8 129.9,37.8 129.9,34.9 127.1,34.9 127.1,22.5 		"/>
		<polygon class="st0" points="145.6,28.7 145.5,28.7 144,22.5 140.8,22.5 140.8,37.8 144,37.8 144,31.2 144.2,31.2 145.9,37.8 
			148.8,37.8 148.8,22.5 145.6,22.5 		"/>
		<path class="st0" d="M153.6,25.2h0.7c0.3,0,0.5,0.2,0.5,0.5c0,0,0,0,0,0.1v8.8c0,0.3-0.2,0.5-0.5,0.6c0,0-0.1,0-0.1,0h-0.7V25.2z
			 M150.1,37.8h5.9l2.2-2.2v-11l-2.2-2.2h-5.9V37.8z"/>
		<polygon class="st0" points="90.7,29.6 90.6,29.6 89.8,22.5 87.4,22.5 86.6,29.6 86.5,29.6 85.7,22.5 82.5,22.5 84.4,37.8 
			87.5,37.8 88.4,31.2 88.6,31.2 89.4,37.8 92.5,37.8 94.5,22.5 91.5,22.5 		"/>
		<path class="st0" d="M117.6,32.6l0.6-5h0.2l0.6,5H117.6z M116.1,22.5l-2.4,15.4h3.3l0.3-2.5h2l0.3,2.5h3.5l-2.4-15.4L116.1,22.5z"
			/>
		<path class="st0" d="M134.6,32.6l0.6-5h0.1l0.6,5H134.6z M133.1,22.5l-2.4,15.4h3.3l0.3-2.5h2l0.3,2.5h3.5l-2.4-15.4L133.1,22.5z"
			/>
		<rect x="49.8" y="0.2" class="st0" width="1" height="37.6"/>
	</g>
</g>
</svg>
